<svg xmlns="http://www.w3.org/2000/svg" width="203" height="216" fill="none"><g clip-path="url(#a)"><path fill="#41364F" d="M127.417.134c.802.32 1.524.882 2.567.481.482-.24 1.284.24 1.926.481l3.851 1.204c1.445.481 2.889.882 4.333 1.444 2.327.882 4.734 1.765 7.061 2.647 1.043.401 2.247.482 3.129 1.043 1.364.883 2.969.963 4.333 1.524 1.364.562 2.648 1.123 4.012 1.685 1.203.562 2.487 1.043 3.691 1.605 1.604.722 3.209 1.524 4.734 2.246 1.284.642 2.567 1.364 3.931 1.765 1.605.481 2.969 1.283 4.413 2.086.482.24.963.561 1.364.882 1.204 1.043 2.327 2.166 3.611 3.049 1.525 1.043 2.167 2.567 3.049 4.01.883 1.525 1.444 3.21 2.247 4.814.561 1.204 1.203 2.327 1.765 3.53.642 1.444 1.123 2.888 1.685 4.332.722 2.006 1.444 3.931 2.166 5.937l2.648 7.22c.321.802.803 1.604.963 2.407.241 1.604 1.043 2.968 1.444 4.412s.963 2.808 1.445 4.171c.24.722.561 1.445.802 2.086.481 1.124 1.043 2.327 1.524 3.45.562 1.284.963 2.647 1.685 3.77.562.883.803 1.685.482 2.568-.08.24-.241.641-.401.722-.642.08-.883.4-1.284.882-.482.481-1.364.481-2.086.802-.803.321-1.605.803-2.407 1.124-.803.32-1.685.48-2.488.802-.401.16-.802.4-1.284.561l-.08.08c-.08 0-.16-.08-.16-.08-.722.642-1.685.642-2.568.803-.802.08-1.605.802-2.407 1.123-.722.32-1.444.561-2.166.722-1.364.32-2.728.722-4.092 1.364-1.284.561-2.729.882-4.093 1.283-.401.16-.722.321-1.043.481-1.604 1.124-3.61 1.043-5.376 1.445-2.086.48-4.172.882-6.178 1.604-.481.16-1.043.562-1.765.24-.241-.08-.883.642-1.043.562-.562-.4-.802.08-1.204.24-.802.161-.882.723-.882 1.445-.08 2.487 0 4.974-.321 7.38-.321 2.728.16 5.375.16 8.103 0 2.327-.24 4.733-.24 7.06-.081 2.166-.081 4.332-.081 6.418v18.531c0 2.568-.08 5.135-.16 7.622 0 1.765-.08 3.61 0 5.375.08 2.005.401 4.091.562 6.097.08 1.364.16 2.808.24 4.171.08 2.327-.08 4.734.241 7.06.481 3.771.08 7.461.16 11.231.081 4.012.081 7.943.161 11.954 0 3.209 0 6.498.08 9.707 0 2.487.161 4.893.161 7.38 0 .642-.723 1.043-1.364.803-.482-.161-.963-.161-1.445-.161-1.524.08-2.808.963-4.333 1.043-1.283.08-2.487.562-3.771.722-1.524.161-3.129.161-4.653.401-1.364.241-2.728-.16-4.093.401-.802.321-1.765.321-2.647.402-1.284.08-2.568.24-3.932.24-2.247.08-4.413.08-6.66.161-2.246.08-4.493.24-6.74.401-1.845.16-3.61.481-5.456.561-2.487.161-4.974.241-7.462.321-1.685.08-3.289.08-4.974.08s-3.45-.16-5.136-.24c-1.043-.08-2.086-.241-3.129-.321-2.888-.241-5.697-.401-8.585-.562-2.167-.16-4.253-.24-6.42-.401-3.209-.24-6.498-.642-9.708-.963-1.926-.16-3.771-.32-5.697-.561-1.685-.241-3.45-.562-5.135-.802-2.728-.482-5.536-.963-8.264-1.444-1.766-.321-3.45-.803-5.216-1.043-1.765-.321-3.53-.401-5.295-.642h-.16c-.563-.08-1.205 0-1.525-.321-.241-.241-.08-.963-.08-1.444-.08-2.407-.161-4.813-.161-7.22 0-1.925.08-3.851 0-5.776 0-3.289-.08-6.579-.08-9.868v-16.927c0-2.086-.16-4.091-.16-6.177.08-3.049.24-6.177.32-9.226.08-1.765.08-3.45 0-5.215-.08-3.128-.08-6.257-.24-9.306-.08-2.406-.241-4.813-.322-7.22l-.24-7.701c-.08-2.968-.241-5.857-.401-8.825-.08-1.444 0-2.968 0-4.492v-8.263c.08-3.29.08-6.579.24-9.948.08-1.845.16-1.925-1.685-2.407-1.685-.481-3.45-.722-5.215-1.123-1.605-.401-3.13-.802-4.734-1.203-1.364-.321-2.648-.562-4.012-.963-2.407-.722-4.814-1.524-7.302-2.326-1.364-.402-2.728-.803-4.092-1.364-1.604-.642-3.29-1.284-4.734-2.166-1.524-.883-2.888-2.006-4.332-2.969-.241-.16-.562-.16-.803-.24v-.562c.08-.08.16-.16.16-.24.482-1.846.963-3.61 1.525-5.456.803-2.406 1.765-4.733 2.648-7.06.883-2.246 1.765-4.412 2.568-6.658.4-.963.722-1.845 1.123-2.808l1.203-3.37c.562-1.604 1.204-3.128 1.846-4.733.722-2.005 1.284-4.09 2.247-6.016 1.845-3.931 3.85-7.702 5.937-11.553 1.364-2.486 2.969-4.893 5.617-6.337a217.157 217.157 0 0 1 8.425-4.573c1.685-.802 3.37-1.444 5.054-2.246l6.5-2.888c1.925-.803 3.851-1.525 5.777-2.327 1.444-.561 2.728-1.283 4.172-1.925 1.444-.642 2.969-1.204 4.413-1.765 2.086-.883 4.092-2.006 6.178-2.567 3.13-.883 6.259-1.364 9.549-1.364 3.29 0 6.499.24 9.628 1.123 4.092 1.123 8.345 1.845 12.597 1.845 3.932 0 7.864-.16 11.795-.4 2.407-.161 4.814-.562 7.222-.964 2.487-.4 4.894-.962 7.381-1.444.963-.16 1.926-.4 2.889-.561h.562Zm67.559 67.95c.081.08.161.24.321.32-.08-.16-.08-.32-.16-.481-.401-1.123-.803-2.326-1.284-3.45-.481-1.123-1.123-2.166-1.525-3.289-.641-1.604-1.043-3.37-1.685-4.974-.962-2.487-2.005-4.974-2.968-7.54-1.364-3.61-2.568-7.381-4.092-10.991-1.525-3.69-3.451-7.22-5.136-10.83-.882-1.846-2.246-3.29-3.851-4.413-.883-.642-1.845-1.123-2.808-1.605-1.605-.802-3.21-1.684-4.815-2.406-1.283-.562-2.647-1.043-3.931-1.605-.963-.4-1.846-.962-2.808-1.364a156.533 156.533 0 0 0-5.457-2.246c-1.685-.642-3.369-1.364-4.974-2.005-1.043-.401-2.167-.642-3.13-1.123-2.246-1.043-2.086-1.124-4.894-1.204-.08 0-.16-.08-.241-.16-1.043-.482-2.166-.883-3.209-1.364-.642-.321-.803-.24-1.043.401-.321.883-.722 1.845-1.364 2.567-4.574 4.814-9.468 9.226-15.727 11.793-.642.24-1.444.321-1.845 1.043 0 .08-.241.08-.321.08-1.043.401-2.167.803-3.21 1.204-.722.24-1.524.16-2.166.561-.963.562-1.926.963-3.049.963-.321 0-.642-.08-.963 0-.802.16-1.685.24-2.407.481-.722.24-1.525-.642-2.166.16 0 0-.081-.08-.161-.08-.963-.08-1.926-.24-2.888-.32-.402-.08-.803-.08-1.204-.16-.722-.081-1.525.08-2.247-.161-1.765-.642-3.851-.321-5.536-1.444 0 0-.08.08-.16.08-.241 0-.402-.08-.642-.16-.241-.08-.401-.321-.642-.402-1.204-.32-2.488-.481-3.691-.802-.963-.24-1.846-.963-2.809-.963-1.043 0-1.845-.32-2.727-.882-.642-.321-1.365-.482-2.007-.722-.32-.08-.561-.321-.882-.482-.401-.24-.722-.561-1.043-.802-1.846-1.123-3.691-2.166-5.537-3.289-.641-.401-1.283-.963-1.925-1.444-.562-.401-1.284-.722-1.364-1.524 0-.08-.08-.16-.16-.24-.402-.242-.883-.322-1.124-.643-1.123-1.283-2.086-2.727-3.21-3.93a4.102 4.102 0 0 0-1.925-1.044c-.482-.08-.963.402-1.525.642-.882.321-1.845.562-2.728.883-.08 0-.08-.08-.16-.08v.24c-.08.08-.08.24-.16.321a48.837 48.837 0 0 1-3.531 1.845c-3.37 1.605-6.82 3.129-10.19 4.733-2.728 1.284-5.456 2.487-8.184 3.771-2.247 1.123-4.654 2.166-6.74 3.53-2.327 1.524-5.136 2.567-6.179 5.616-.08.32-.24.641-.4.962-1.606 3.77-3.29 7.38-4.735 11.232-1.043 2.647-1.524 5.455-2.487 8.102-.963 2.888-2.247 5.696-3.29 8.504-1.364 3.53-2.728 7.14-4.172 10.67-.241.722-.562 1.283.561 1.444.402.08.803.24 1.204.4 2.327.803 4.734 1.686 7.06 2.488 2.167.722 4.414 1.444 6.66 2.086 2.488.722 5.056 1.283 7.623 1.925 1.926.481 3.932.963 5.857 1.364.321.08.723 0 1.124 0-.08-.321-.16-.722-.241-1.043-.401-.802-.963-1.524-1.204-2.327-.561-1.925-.962-3.93-1.364-5.936-.722-3.53-1.364-6.98-2.166-10.51-.24-1.042-.16-1.444.963-1.363.24 0 .562-.241.802-.241.401.08 1.043.16 1.123.401a170.847 170.847 0 0 1 1.605 6.097c.241.963.321 1.925.562 2.888.08 0 .16 0 .24-.08v-3.53c.08-3.29.08-6.578.241-9.867.08-1.765.401-3.53.642-5.295.16-.963.642-1.926.562-2.888-.08-1.043.401-1.605 1.123-2.166.401-.321.803-.321.883.32.16 1.445.24 2.889.32 4.333 0 .802-.08 1.684-.08 2.487 0 .24.161.561.161.802v4.492c0 1.765.08 3.61.16 5.375.08 2.086.241 4.252.402 6.338.08 1.444.16 2.968.16 4.412.08 2.166.08 4.332.08 6.499 0 1.363-.24 2.647-.24 4.01.08 3.05.32 6.018.32 9.066.08 3.53.08 7.14 0 10.67 0 2.647-.16 5.214-.08 7.862.16 4.171.482 8.423.642 12.595.08 2.968 0 6.017 0 8.985 0 3.048-.08 6.097-.08 9.226 0 1.444-.08 2.968-.08 4.412 0 1.284.24 2.728-.08 3.931-.642 2.246-.321 4.573-.482 6.819-.08 1.364.08 2.728.08 4.091 0 1.685-.08 3.29-.16 4.974v4.252c0 1.524.08 3.129.08 4.653 0 1.284.321 2.567 0 3.771-.562 2.166 0 4.412-.16 6.578-.16 2.326 0 4.653.08 6.979v2.889c-.08 1.363-.24 2.727-.321 4.091 0 .08.16.321.24.321 2.007.241 4.093.481 6.099.802 3.21.481 6.419 1.203 9.628 1.685 2.969.401 6.018.642 9.067.962 3.29.402 6.5.883 9.789 1.204 3.61.401 7.221.882 10.832 1.043 3.851.16 7.703.08 11.474.16 2.808 0 5.616.08 8.505.08 1.605 0 3.209.241 4.734 0 3.049-.481 6.018.161 9.067-.401 1.845-.321 3.851.081 5.857.081 1.685 0 3.37-.161 4.975-.321 2.407-.241 4.734-.562 7.141-.803l10.35-1.203c1.685-.241 3.451-.401 5.136-.722.16 0 .481-.321.481-.481 0-.482-.16-.883-.16-1.364-.161-2.567-.241-5.054-.321-7.621-.081-3.129-.081-6.178-.081-9.306 0-1.926-.08-3.851 0-5.776.081-1.765-.641-3.45-.401-5.295.241-1.605.08-3.289.08-4.974 0-1.845.081-3.61-.08-5.455-.16-3.691-.561-7.301-.722-10.991-.08-2.647.241-5.295.321-8.022.08-1.685.161-3.29.161-4.974 0-1.845.08-3.61 0-5.456-.081-2.166-.321-4.412-.321-6.578 0-3.289.16-6.578.24-9.867.081-2.808.081-5.616.081-8.424 0-2.006.08-3.931.16-5.856 0-2.969 0-5.857.08-8.825 0-.562.08-1.203.161-1.765.08-1.123.24-2.246.321-3.289 0-.802-.081-1.524-.081-2.327 0-1.845.081-3.61.161-5.455.08-1.765.241-3.61.401-5.375l.241-3.85c.08-1.204.16-2.407.321-3.61.16-1.766.321-3.53.481-5.215l.241-2.166c.241-1.605.642-3.129.802-4.733.161-1.204 0-2.487.161-3.69.16-1.284.561-2.488.882-3.771 0 0 .081 0 .081-.08l.481 20.457c.321-1.043.481-2.006.722-3.049.482-2.808.963-5.535 1.525-8.343.16-.883.08-1.845 1.283-2.166.161-.08.241-.401.402-.562.08-.08.16-.08.16-.16.241-.321.481-.642.722-.883.08.401.321.803.321 1.204 0 .561-.16 1.123-.16 1.604-.081 1.043-.161 2.086-.321 3.129-.161.963-.482 1.845-.562 2.808-.401 2.407-.722 4.893-1.123 7.3-.241 1.765-.562 3.53-.803 5.295l-.722 3.85c-.08.562-.401 1.044-.481 1.605 0 .08.321.481.481.401 2.488-.802 4.895-1.604 7.382-2.406a490.19 490.19 0 0 1 10.19-3.049c2.006-.561 4.012-1.123 6.018-1.765 1.685-.561 3.37-1.203 5.055-1.765.642-.24 1.284-.4 1.926-.642-.081.16-.081.321-.161.482 0 0 .161.08.241.08 0-.16.08-.32.08-.481.963.4 1.685-.321 2.487-.562.241.321.642.481.963.481Zm-39.958 138.145c.161-.722.241-1.444.401-2.166.081-.481 0-.963.081-1.444-.402 0-.803-.08-1.204 0-1.284.241-2.568.561-3.851.802-.402.08-.883-.16-1.284 0-1.605.321-3.21.802-4.895 1.123-.481.08-1.123.401-1.685-.24-.24-.241-.962-.241-1.444-.081-1.364.401-2.648.883-4.012 1.284-.481.16-.963.241-1.444.241-1.605-.161-3.049 0-4.574.401-.641.16-1.364.16-2.005.24-.402.081-.803.161-1.204.161-.321 0-.642-.08-.963 0-1.043 0-2.166.16-3.209.16-.963 0-1.926-.24-2.889-.24-1.043 0-2.166.24-3.209.24-1.605.08-3.13.08-4.734.08-2.006.081-4.012.161-6.018.161-2.167 0-4.333 0-6.499-.08-1.525-.081-2.97-.161-4.494-.321-.962-.08-2.005-.562-2.968-.562-3.53-.08-7.061-.08-10.592-.24-2.166-.081-4.413-.482-6.58-.722-2.647-.321-5.215-.642-7.862-.963-4.253-.562-8.586-1.123-12.838-1.685-1.364-.16-2.809-.24-4.173-.401-2.648-.321-5.295-.722-7.943-.882-1.525-.161-1.605 0-1.284 1.444 0 .24.321.481.562.561.722.161 1.444.161 2.166.241 1.043.16 2.166.321 3.21.481 2.407.401 4.734.963 7.14 1.364 2.408.401 4.815.722 7.222 1.123 2.728.401 5.376.722 8.104 1.123 1.364.161 2.728.321 4.092.562 1.364.241 2.648.561 4.012.722 1.284.16 2.487.16 3.771.241 3.05.32 6.178.722 9.227.962 3.29.241 6.58.482 9.87.562 3.69.16 7.381.08 11.072.16.722 0 1.364-.08 2.086-.08 1.284-.08 2.488-.08 3.772-.16.24 0 .481-.081.722-.081.561.081 1.123.321 1.604.321 1.284-.08 2.488-.401 3.772-.481 1.604-.161 3.129-.241 4.734-.321 2.006-.16 4.011.241 6.017-.08 3.21-.482 6.58-.722 9.789-1.123 2.648-.401 5.376-.883 8.024-1.444a24.908 24.908 0 0 1 2.407-.963Zm-50.87-190.13c.561-.08 1.284-.241 2.086-.402 2.648-.642 5.296-1.043 7.863-1.925 2.086-.722 4.092-1.765 6.098-2.728 2.809-1.444 5.216-3.53 7.141-6.097.241-.32.402-.722.642-1.123-.401.08-.722.16-1.123.321-2.407.642-4.895 1.284-7.302 1.925-1.043.241-2.086.401-3.129.562-1.605.24-3.209.561-4.814.722-1.364.16-2.728.24-4.092.32-1.685.081-3.37.081-5.055.081-1.444 0-2.969-.08-4.413-.16-.803-.08-1.525-.321-2.327-.562-.24-.08-.481-.16-.722-.16-.803 0-1.685.16-2.488.08-1.925-.24-3.77-.642-5.616-.963-.883-.16-1.846-.32-2.728-.561-1.284-.241-2.568-.642-3.852-.883-.641-.08-1.283-.08-1.925-.08-1.124 0-2.167.16-3.29.16-.16 0-.321-.08-.562-.16.08.24.16.481.321.642 1.284.882 1.926 2.487 3.45 3.128.321.16.642.482.963.722.803.642 1.525 1.284 2.327 1.926.562.4 1.043.963 1.605 1.283.802.402 1.685.722 2.487 1.043a45.67 45.67 0 0 0 3.53 1.123c1.284.321 2.568.642 3.852.883a95.35 95.35 0 0 0 6.66.963c1.364 0 2.808-.08 4.413-.08ZM71.812 3.903v-.16c-.4.08-.802.16-1.123.24-.883.321-1.685.642-2.568.963-.561.16-1.203.321-1.765.482 0 0 0 .4.08.48.642.803 1.204 1.686 1.846 2.488.24.401.401.882.722 1.123 1.123 1.043 2.327 2.006 3.53 3.049 1.204 1.042 2.407 2.246 3.771 3.048 2.408 1.524 4.895 2.888 7.382 4.172 1.605.802 3.37 1.283 5.055 1.845 1.124.32 2.247.722 3.37.802 2.407.32 4.895.481 7.302.642 2.246.16 4.573.24 6.9.16 2.006-.08 4.012-.481 5.938-.722.642-.08 1.284-.16 1.925-.4.482-.161.803-.643 1.204-.883 1.765-.883 3.53-1.685 5.296-2.567 2.647-1.284 5.295-2.568 7.542-4.573 1.444-1.284 2.808-2.728 4.172-4.092.803-.802 1.605-1.684 2.407-2.567.723-.802.482-1.845-.401-2.086-.561-.16-1.123-.24-1.685-.481-.481-.16-.882-.32-.802.481 0 .321-.241.722-.401 1.043-.803.963-1.605 1.926-2.488 2.648-2.166 1.845-4.332 3.69-6.659 5.294-2.568 1.765-5.296 3.45-8.425 4.092l-2.407.481c-.803.16-1.605.401-2.327.482-1.364.16-2.648.32-4.012.4-1.204.08-2.487.161-3.691.161-1.043 0-2.166-.24-3.21-.401-1.765-.24-3.53-.562-5.295-.882-.722-.16-1.364-.562-2.086-.723-1.204-.32-2.407-.641-3.53-1.042-.402-.16-.723-.241-1.124-.401-1.123-.402-2.086-1.043-3.21-1.525-.561-.24-1.123-.4-1.444-1.123-.16-.401-.642-.802-1.043-.882-1.204-.321-2.086-1.043-2.888-1.926-.321-.32-.723-.642-1.204-.802-.722-.32-1.123-.882-1.524-1.524-.321-.482-1.124-.642-1.124-1.444-.08 0-.16.08-.16 0-.401-.321-.883-.642-1.204-1.043-.24-.401-.24-.963-.401-1.364-.08-.32-.401-.481-.642-.722 0-.08.24-.16.401-.24Zm88.181 79.582v1.525c0 .16.321.4.481.32 1.364-.32 2.728-.561 4.092-.962 2.167-.562 4.333-1.123 6.419-1.765 1.685-.481 3.37-1.123 5.055-1.685 1.124-.4 2.327-.802 3.45-1.203 1.044-.321 2.167-.481 3.21-.802 1.123-.321 2.247-.803 3.37-1.124 1.926-.561 3.851-1.042 5.617-1.925 1.685-.802 3.37-1.604 5.054-2.246.883-.321.723-.642.402-1.284-.402-.802-.883-1.604-1.124-2.406-.16-.562-.321-.482-.722-.321-.963.4-2.006.641-2.888 1.123-.562.32-1.284.08-1.766.4-.962.482-1.845 1.044-2.888 1.204-.401.08-.802.16-1.043.401-.401.482-.963.722-1.605.883-.802.32-1.605.642-2.487.882-.883.241-2.006.241-2.648.722-1.364 1.043-2.889.883-4.333 1.444-.882.321-1.765.241-2.648.562-1.043.32-1.925.802-2.968 1.123-2.809.963-5.617 1.925-8.506 2.808-1.524.722-1.524.642-1.524 2.326ZM37.712 82.363c.24-.722-.322-.722-.803-.882-.722-.16-1.524-.16-2.247-.321-2.968-.722-6.017-1.364-8.986-2.166-1.765-.481-3.45-1.123-5.215-1.605-1.525-.4-3.13-.641-4.654-1.123-2.809-.882-5.697-1.765-8.425-2.888-.883-.32-1.204-.4-1.605.562-.32.882 0 1.203.722 1.444.482.24.963.561 1.525.722 2.487 1.123 4.974 2.246 7.462 3.289 1.604.642 3.29 1.203 4.974 1.765 1.284.401 2.648.802 4.012 1.043 2.247.481 4.494.802 6.66 1.203 2.086.401 4.172.802 6.178 1.123.16 0 .401-.16.401-.24v-1.926Zm148.117-10.108v-.08h-.802v.08h.802Zm-.802.16c-.08.161-.161.241-.161.321 0 0 .081.16.161.16s.16-.08.241-.08c0-.16-.081-.24-.241-.4Zm-22.948-18.29c-.08-.08-.08-.08 0 0-.08-.08-.08 0-.16 0h.16c-.08 0-.08 0 0 0Zm28.003-11.473c0 .08 0 .08 0 0 0 .08.08.08.08.08l-.08-.08Z"/><path fill="#41364F" d="M192.328 79.796c.161 0 .321.08.482.08 0 .08-.08.16-.08.16-.161 0-.321-.08-.482-.16l.08-.08Zm-29.045-28.158c-.081 0-.161-.08-.321-.08.08-.08.08-.161.16-.241 0 .16.08.32.161.32Z"/><path fill="#FF596F" d="M140.975 10.67a1 1 0 0 0-1.414-.002l-6.371 6.357a1 1 0 1 0 1.412 1.415l5.664-5.65 5.65 5.663a1 1 0 0 0 1.416-1.413l-6.357-6.37Zm-1.629 189.477a1 1 0 0 0 1.414.001l6.371-6.357a1 1 0 1 0-1.412-1.415l-5.663 5.65-5.651-5.663a1 1 0 1 0-1.416 1.412l6.357 6.372Zm-.079-188.772-.213 188.064 2 .002.213-188.064-2-.003Z"/><path fill="#FF596F" d="M154.924 67.615a1 1 0 0 0 0-1.415l-6.364-6.364a1 1 0 1 0-1.414 1.415l5.657 5.657-5.657 5.656a1 1 0 1 0 1.414 1.415l6.364-6.364ZM43.354 66.2a1 1 0 0 0 0 1.415l6.365 6.364a1 1 0 1 0 1.414-1.415l-5.657-5.656 5.657-5.657a1 1 0 0 0-1.414-1.415L43.355 66.2Zm110.863-.293H44.062v2h110.155v-2Z"/></g><defs><clipPath id="a"><path fill="#fff" d="M0 .134h203v215H0z"/></clipPath></defs></svg>